<svg xmlns="http://www.w3.org/2000/svg" width="1400" height="875" viewBox="0 0 1400 875" fill="none">
  <rect width="1400" height="875" fill="#f4f6fb"/>
  <rect width="1400" height="48" fill="#e8ecf4"/>
  <circle cx="28" cy="24" r="7" fill="#ff5f57"/>
  <circle cx="52" cy="24" r="7" fill="#febc2e"/>
  <circle cx="76" cy="24" r="7" fill="#28c840"/>
  <rect x="120" y="14" width="420" height="20" rx="10" fill="#d8dee9"/>
  <rect width="220" height="875" y="48" fill="#1e3a8a"/>
  <rect x="32" y="80" width="120" height="14" rx="4" fill="#60a5fa" opacity="0.9"/>
  <rect x="32" y="130" width="156" height="10" rx="3" fill="#fff" opacity="0.35"/>
  <rect x="32" y="160" width="140" height="10" rx="3" fill="#fff" opacity="0.2"/>
  <rect x="32" y="190" width="148" height="10" rx="3" fill="#fff" opacity="0.2"/>
  <rect x="32" y="220" width="132" height="10" rx="3" fill="#fff" opacity="0.2"/>
  <text x="260" y="110" fill="#0f172a" font-family="Arial,sans-serif" font-size="32" font-weight="700">Client Onboarding</text>
  <text x="260" y="142" fill="#64748b" font-family="Arial,sans-serif" font-size="18">Medall Corp · Partner channels</text>
  <rect x="260" y="180" width="200" height="100" rx="16" fill="#fff" stroke="#e2e8f0"/>
  <rect x="280" y="205" width="80" height="12" rx="4" fill="#cbd5e1"/>
  <text x="280" y="255" fill="#2563eb" font-family="Arial,sans-serif" font-size="36" font-weight="700">10+</text>
  <rect x="480" y="180" width="200" height="100" rx="16" fill="#fff" stroke="#e2e8f0"/>
  <rect x="500" y="205" width="90" height="12" rx="4" fill="#cbd5e1"/>
  <text x="500" y="255" fill="#16a34a" font-family="Arial,sans-serif" font-size="36" font-weight="700">Live</text>
  <rect x="700" y="180" width="200" height="100" rx="16" fill="#fff" stroke="#e2e8f0"/>
  <rect x="720" y="205" width="110" height="12" rx="4" fill="#cbd5e1"/>
  <text x="720" y="255" fill="#0f172a" font-family="Arial,sans-serif" font-size="28" font-weight="700">Django</text>
  <rect x="260" y="310" width="1080" height="480" rx="20" fill="#fff" stroke="#e2e8f0"/>
  <rect x="290" y="340" width="180" height="14" rx="4" fill="#94a3b8"/>
  <rect x="290" y="390" width="1020" height="12" rx="4" fill="#e2e8f0"/>
  <rect x="290" y="420" width="1020" height="12" rx="4" fill="#f1f5f9"/>
  <rect x="290" y="450" width="1020" height="12" rx="4" fill="#e2e8f0"/>
  <rect x="290" y="480" width="1020" height="12" rx="4" fill="#f1f5f9"/>
  <rect x="290" y="510" width="1020" height="12" rx="4" fill="#e2e8f0"/>
  <rect x="290" y="560" width="140" height="40" rx="10" fill="#2563eb"/>
  <text x="318" y="586" fill="#fff" font-family="Arial,sans-serif" font-size="16" font-weight="600">Onboard</text>
</svg>
